<svg t="1755573272134"  fill="currentColor" viewBox="0 0 1066 1024" version="1.1" xmlns="http://www.w3.org/2000/svg" p-id="4890" width="200" height="200"><path d="M505.898667 128c0-20.181333 16.384-36.565333 36.565333-36.565333A419.968 419.968 0 0 1 963.029333 512a419.925333 419.925333 0 0 1-420.565333 420.565333 36.565333 36.565333 0 1 1 0-73.130666A346.794667 346.794667 0 0 0 889.898667 512a346.794667 346.794667 0 0 0-347.434667-347.434667 36.565333 36.565333 0 0 1-36.565333-36.565333z" p-id="4891"></path><path d="M542.464 164.565333A346.794667 346.794667 0 0 0 195.029333 512a346.794667 346.794667 0 0 0 347.434667 347.434667 36.565333 36.565333 0 0 1 0 73.130666A419.968 419.968 0 0 1 121.898667 512a419.968 419.968 0 0 1 420.565333-420.565333 36.565333 36.565333 0 0 1 0 73.130666z" p-id="4892"></path><path d="M432.938667 154.453333a126.762667 126.762667 0 0 1 219.093333 0c130.261333 217.429333 130.261333 497.706667 0 715.136a126.762667 126.762667 0 0 1-219.093333 0c-130.261333-217.429333-130.261333-497.706667 0-715.136m156.373333 37.546667c-21.973333-36.565333-71.722667-36.565333-93.610667 0-116.394667 194.304-116.394667 445.738667 0 640 21.888 36.608 71.68 36.608 93.610667 0 116.352-194.261333 116.352-445.696 0-640z" p-id="4893"></path><path d="M121.898667 512c0-20.181333 16.384-36.565333 36.565333-36.565333h768a36.565333 36.565333 0 0 1 0 73.130666h-768A36.565333 36.565333 0 0 1 121.898667 512z" p-id="4894"></path></svg>